<?xml version="1.0" encoding="UTF-8" standalone="no"?>
<svg width="300px" height="300px" viewBox="0 0 300 300" version="1.1" xmlns="http://www.w3.org/2000/svg" xmlns:xlink="http://www.w3.org/1999/xlink">
    <!-- Generator: Sketch 41.1 (35376) - http://www.bohemiancoding.com/sketch -->
    <title>background</title>
    <desc>Created with Sketch.</desc>
    <defs>
        <path d="M11.1316442,4.58638683e-12 C10.8221233,2.79996917 8.44829992,4.97777778 5.56582209,4.97777778 C2.68334427,4.97777778 0.309520891,2.79996917 5.03576347e-13,4.58649785e-12 L11.1316442,0 Z" id="path-1"></path>
        <path d="M11.1316442,4.58608151e-12 C10.8221233,2.79996917 8.44829992,4.97777778 5.56582209,4.97777778 C2.68334427,4.97777778 0.309520891,2.79996917 5.0349655e-13,4.58649785e-12 L11.1316442,0 Z" id="path-3"></path>
        <path d="M11.1316442,4.58638683e-12 C10.8221233,2.79996917 8.44829992,4.97777778 5.56582209,4.97777778 C2.68334427,4.97777778 0.309520891,2.79996917 5.03576347e-13,4.58649785e-12 L11.1316442,0 Z" id="path-5"></path>
        <filter x="-50%" y="-50%" width="200%" height="200%" filterUnits="objectBoundingBox" id="filter-7">
            <feGaussianBlur stdDeviation="1.33333333" in="SourceGraphic"></feGaussianBlur>
        </filter>
        <filter x="-50%" y="-50%" width="200%" height="200%" filterUnits="objectBoundingBox" id="filter-8">
            <feGaussianBlur stdDeviation="1.33333333" in="SourceGraphic"></feGaussianBlur>
        </filter>
        <filter x="-50%" y="-50%" width="200%" height="200%" filterUnits="objectBoundingBox" id="filter-9">
            <feGaussianBlur stdDeviation="1.33333333" in="SourceGraphic"></feGaussianBlur>
        </filter>
        <filter x="-50%" y="-50%" width="200%" height="200%" filterUnits="objectBoundingBox" id="filter-10">
            <feGaussianBlur stdDeviation="1.33333333" in="SourceGraphic"></feGaussianBlur>
        </filter>
    </defs>
    <g id="Page-1" stroke="none" stroke-width="1" fill="none" fill-rule="evenodd" opacity="0.2">
        <g id="background">
            <g id="emoji" transform="translate(42.000000, 42.000000)">
                <circle id="body" fill="#FFDA6A" cx="8" cy="8" r="8"></circle>
                <g id="expression" transform="translate(2.488889, 4.088889)">
                    <path d="M0.729957497,0.673651999 L2.68551305,1.65142978 L2.68551305,1.01539266 L0.729957497,1.99317044 C0.554320698,2.08098884 0.483129819,2.29456148 0.570948219,2.47019828 C0.658766618,2.64583508 0.872339255,2.71702595 1.04797605,2.62920755 L3.00353161,1.65142978 C3.26559331,1.52039893 3.26559331,1.14642351 3.00353161,1.01539266 L1.04797605,0.0376148855 C0.872339255,-0.050203514 0.658766618,0.0209873648 0.570948219,0.196624164 C0.483129819,0.372260963 0.554320698,0.5858336 0.729957497,0.673651999 Z M10.1521797,0.0376148855 L8.19662416,1.01539266 C7.93456246,1.14642351 7.93456246,1.52039893 8.19662416,1.65142978 L10.1521797,2.62920755 C10.3278165,2.71702595 10.5413892,2.64583508 10.6292076,2.47019828 C10.717026,2.29456148 10.6458351,2.08098884 10.4701983,1.99317044 L8.51464272,1.01539266 L8.51464272,1.65142978 L10.4701983,0.673651999 C10.6458351,0.5858336 10.717026,0.372260963 10.6292076,0.196624164 C10.5413892,0.0209873648 10.3278165,-0.050203514 10.1521797,0.0376148855 Z" id="eyes" fill="#000000"></path>
                    <g id="mouth" transform="translate(0.000000, 4.088889)">
                        <mask id="mask-2" fill="white">
                            <use xlink:href="#path-1"></use>
                        </mask>
                        <use id="Mask" fill="#000000" xlink:href="#path-1"></use>
                        <ellipse id="Oval-12" fill="#F55065" mask="url(#mask-2)" cx="5.6" cy="4.88888889" rx="6.84444444" ry="3.46666667"></ellipse>
                    </g>
                </g>
            </g>
            <g id="emoji-copy-2" transform="translate(150.000000, 250.000000) rotate(-120.000000) translate(-150.000000, -250.000000) translate(142.000000, 242.000000)">
                <circle id="body" fill="#FFDA6A" cx="8" cy="8" r="8"></circle>
                <g id="expression" transform="translate(2.488889, 4.088889)">
                    <path d="M0.729957497,0.673651999 L2.68551305,1.65142978 L2.68551305,1.01539266 L0.729957497,1.99317044 C0.554320698,2.08098884 0.483129819,2.29456148 0.570948219,2.47019828 C0.658766618,2.64583508 0.872339255,2.71702595 1.04797605,2.62920755 L3.00353161,1.65142978 C3.26559331,1.52039893 3.26559331,1.14642351 3.00353161,1.01539266 L1.04797605,0.0376148855 C0.872339255,-0.050203514 0.658766618,0.0209873648 0.570948219,0.196624164 C0.483129819,0.372260963 0.554320698,0.5858336 0.729957497,0.673651999 Z M10.1521797,0.0376148855 L8.19662416,1.01539266 C7.93456246,1.14642351 7.93456246,1.52039893 8.19662416,1.65142978 L10.1521797,2.62920755 C10.3278165,2.71702595 10.5413892,2.64583508 10.6292076,2.47019828 C10.717026,2.29456148 10.6458351,2.08098884 10.4701983,1.99317044 L8.51464272,1.01539266 L8.51464272,1.65142978 L10.4701983,0.673651999 C10.6458351,0.5858336 10.717026,0.372260963 10.6292076,0.196624164 C10.5413892,0.0209873648 10.3278165,-0.050203514 10.1521797,0.0376148855 Z" id="eyes" fill="#000000"></path>
                    <g id="mouth" transform="translate(0.000000, 4.088889)">
                        <mask id="mask-4" fill="white">
                            <use xlink:href="#path-3"></use>
                        </mask>
                        <use id="Mask" fill="#000000" xlink:href="#path-3"></use>
                        <ellipse id="Oval-12" fill="#F55065" mask="url(#mask-4)" cx="5.6" cy="4.88888889" rx="6.84444444" ry="3.46666667"></ellipse>
                    </g>
                </g>
            </g>
            <g id="emoji-copy" transform="translate(250.000000, 150.000000) rotate(90.000000) translate(-250.000000, -150.000000) translate(242.000000, 142.000000)">
                <circle id="body" fill="#FFDA6A" cx="8" cy="8" r="8"></circle>
                <g id="expression" transform="translate(2.488889, 4.088889)">
                    <path d="M0.729957497,0.673651999 L2.68551305,1.65142978 L2.68551305,1.01539266 L0.729957497,1.99317044 C0.554320698,2.08098884 0.483129819,2.29456148 0.570948219,2.47019828 C0.658766618,2.64583508 0.872339255,2.71702595 1.04797605,2.62920755 L3.00353161,1.65142978 C3.26559331,1.52039893 3.26559331,1.14642351 3.00353161,1.01539266 L1.04797605,0.0376148855 C0.872339255,-0.050203514 0.658766618,0.0209873648 0.570948219,0.196624164 C0.483129819,0.372260963 0.554320698,0.5858336 0.729957497,0.673651999 Z M10.1521797,0.0376148855 L8.19662416,1.01539266 C7.93456246,1.14642351 7.93456246,1.52039893 8.19662416,1.65142978 L10.1521797,2.62920755 C10.3278165,2.71702595 10.5413892,2.64583508 10.6292076,2.47019828 C10.717026,2.29456148 10.6458351,2.08098884 10.4701983,1.99317044 L8.51464272,1.01539266 L8.51464272,1.65142978 L10.4701983,0.673651999 C10.6458351,0.5858336 10.717026,0.372260963 10.6292076,0.196624164 C10.5413892,0.0209873648 10.3278165,-0.050203514 10.1521797,0.0376148855 Z" id="eyes" fill="#000000"></path>
                    <g id="mouth" transform="translate(0.000000, 4.088889)">
                        <mask id="mask-6" fill="white">
                            <use xlink:href="#path-5"></use>
                        </mask>
                        <use id="Mask" fill="#000000" xlink:href="#path-5"></use>
                        <ellipse id="Oval-12" fill="#F55065" mask="url(#mask-6)" cx="5.6" cy="4.88888889" rx="6.84444444" ry="3.46666667"></ellipse>
                    </g>
                </g>
            </g>
            <g id="emoji" transform="translate(50.000000, 150.000000) rotate(-10.000000) translate(-50.000000, -150.000000) translate(42.000000, 142.000000)">
                <circle id="body" fill="#FFDA6A" cx="8" cy="8" r="8"></circle>
                <g id="expression" transform="translate(1.777778, 1.777778)">
                    <ellipse id="red" fill="#F55065" filter="url(#filter-7)" cx="1.6" cy="6.4" rx="1.42222222" ry="1.42222222"></ellipse>
                    <ellipse id="red" fill="#F55065" filter="url(#filter-8)" cx="9.95555556" cy="4.08888889" rx="1.42222222" ry="1.42222222"></ellipse>
                    <path d="M4.22285226,3.32306209 C3.85876613,2.2025202 2.65523733,1.58929165 1.53469544,1.95337778 C0.414153549,2.31746391 -0.199075006,3.52099271 0.165011124,4.6415346 C0.225692146,4.82829158 0.42628028,4.93049634 0.613037261,4.86981532 C0.799794243,4.8091343 0.901999002,4.60854616 0.84131798,4.42178918 C0.598593894,3.67476125 1.00741293,2.87240872 1.75444086,2.62968463 C2.50146878,2.38696054 3.30382132,2.79577958 3.5465454,3.54280751 C3.60722643,3.72956449 3.80781456,3.83176925 3.99457154,3.77108823 C4.18132852,3.7104072 4.28353328,3.50981907 4.22285226,3.32306209 Z M9.91174115,1.54528431 C9.54765502,0.424742423 8.34412621,-0.188486133 7.22358433,0.175599997 C6.10304244,0.539686127 5.48981388,1.74321493 5.85390001,2.86375682 C5.91458103,3.0505138 6.11516917,3.15271856 6.30192615,3.09203754 C6.48868313,3.03135652 6.59088789,2.83076838 6.53020687,2.6440114 C6.28748278,1.89698348 6.69630182,1.09463094 7.44332974,0.851906853 C8.19035767,0.609182767 8.99271021,1.0180018 9.23543429,1.76502973 C9.29611531,1.95178671 9.49670345,2.05399147 9.68346043,1.99331045 C9.87021741,1.93262943 9.97242217,1.73204129 9.91174115,1.54528431 Z M2.52642589,6.73678706 C2.73330683,7.15054895 3.93218559,7.64722729 5.00855711,7.6886262 C6.55182825,7.74798278 7.91559482,7.01650798 8.84487677,5.32690444 C8.93951015,5.15484376 8.87674291,4.9386455 8.70468222,4.84401212 C8.53262153,4.74937874 8.31642328,4.81214598 8.2217899,4.98420667 C7.42530352,6.43236372 6.31613607,7.02728081 5.03588733,6.97804047 C4.55770337,6.95964878 4.0817244,6.84788576 3.66941878,6.67707344 C3.50405109,6.60856396 3.35919834,6.5342358 3.2516355,6.46526904 C3.20745707,6.43694287 3.17265564,6.41141657 3.15000852,6.39164098 C3.14565512,6.38783956 3.14877986,6.39140222 3.162463,6.4187685 C3.0746446,6.2431317 2.86107197,6.17194082 2.68543517,6.25975922 C2.50979837,6.34757762 2.43860749,6.56115026 2.52642589,6.73678706 Z" fill="#000000"></path>
                </g>
            </g>
            <g id="emoji-copy-3" transform="translate(250.000000, 250.000000) rotate(45.000000) translate(-250.000000, -250.000000) translate(242.000000, 242.000000)">
                <circle id="body" fill="#FFDA6A" cx="8" cy="8" r="8"></circle>
                <g id="expression" transform="translate(1.777778, 1.777778)">
                    <ellipse id="red" fill="#F55065" filter="url(#filter-9)" cx="1.6" cy="6.4" rx="1.42222222" ry="1.42222222"></ellipse>
                    <ellipse id="red" fill="#F55065" filter="url(#filter-10)" cx="9.95555556" cy="4.08888889" rx="1.42222222" ry="1.42222222"></ellipse>
                    <path d="M4.22285226,3.32306209 C3.85876613,2.2025202 2.65523733,1.58929165 1.53469544,1.95337778 C0.414153549,2.31746391 -0.199075006,3.52099271 0.165011124,4.6415346 C0.225692146,4.82829158 0.42628028,4.93049634 0.613037261,4.86981532 C0.799794243,4.8091343 0.901999002,4.60854616 0.84131798,4.42178918 C0.598593894,3.67476125 1.00741293,2.87240872 1.75444086,2.62968463 C2.50146878,2.38696054 3.30382132,2.79577958 3.5465454,3.54280751 C3.60722643,3.72956449 3.80781456,3.83176925 3.99457154,3.77108823 C4.18132852,3.7104072 4.28353328,3.50981907 4.22285226,3.32306209 Z M9.91174115,1.54528431 C9.54765502,0.424742423 8.34412621,-0.188486133 7.22358433,0.175599997 C6.10304244,0.539686127 5.48981388,1.74321493 5.85390001,2.86375682 C5.91458103,3.0505138 6.11516917,3.15271856 6.30192615,3.09203754 C6.48868313,3.03135652 6.59088789,2.83076838 6.53020687,2.6440114 C6.28748278,1.89698348 6.69630182,1.09463094 7.44332974,0.851906853 C8.19035767,0.609182767 8.99271021,1.0180018 9.23543429,1.76502973 C9.29611531,1.95178671 9.49670345,2.05399147 9.68346043,1.99331045 C9.87021741,1.93262943 9.97242217,1.73204129 9.91174115,1.54528431 Z M2.52642589,6.73678706 C2.73330683,7.15054895 3.93218559,7.64722729 5.00855711,7.6886262 C6.55182825,7.74798278 7.91559482,7.01650798 8.84487677,5.32690444 C8.93951015,5.15484376 8.87674291,4.9386455 8.70468222,4.84401212 C8.53262153,4.74937874 8.31642328,4.81214598 8.2217899,4.98420667 C7.42530352,6.43236372 6.31613607,7.02728081 5.03588733,6.97804047 C4.55770337,6.95964878 4.0817244,6.84788576 3.66941878,6.67707344 C3.50405109,6.60856396 3.35919834,6.5342358 3.2516355,6.46526904 C3.20745707,6.43694287 3.17265564,6.41141657 3.15000852,6.39164098 C3.14565512,6.38783956 3.14877986,6.39140222 3.162463,6.4187685 C3.0746446,6.2431317 2.86107197,6.17194082 2.68543517,6.25975922 C2.50979837,6.34757762 2.43860749,6.56115026 2.52642589,6.73678706 Z" fill="#000000"></path>
                </g>
            </g>
            <g id="love-copy" transform="translate(150.000000, 50.000000) rotate(180.000000) translate(-150.000000, -50.000000) translate(142.000000, 42.000000)">
                <ellipse id="body" fill="#F55065" cx="7.99112098" cy="7.98411122" rx="7.99112098" ry="7.98411122"></ellipse>
                <path d="M8.07991121,5.57896346 C7.53838002,4.5523631 6.4932903,4.09767885 5.29818054,4.30876921 C3.68705511,4.59363163 2.92199032,6.33019681 3.65114009,8.0010245 C4.47512796,9.8895163 6.35673839,11.2233729 8.07991121,12.2423039 C9.80308403,11.2233729 11.6846945,9.8895163 12.5086823,8.0010245 C13.2378321,6.33019681 12.4727673,4.59363163 10.8616419,4.30876921 C9.66653212,4.09767885 8.6214424,4.5523631 8.07991121,5.57896346 Z" id="heart" fill="#FFFFFF"></path>
            </g>
            <g id="love-copy-2" transform="translate(42.000000, 242.000000)">
                <ellipse id="body" fill="#F55065" cx="7.99112098" cy="7.98411122" rx="7.99112098" ry="7.98411122"></ellipse>
                <path d="M8.07991121,5.57896346 C7.53838002,4.5523631 6.4932903,4.09767885 5.29818054,4.30876921 C3.68705511,4.59363163 2.92199032,6.33019681 3.65114009,8.0010245 C4.47512796,9.8895163 6.35673839,11.2233729 8.07991121,12.2423039 C9.80308403,11.2233729 11.6846945,9.8895163 12.5086823,8.0010245 C13.2378321,6.33019681 12.4727673,4.59363163 10.8616419,4.30876921 C9.66653212,4.09767885 8.6214424,4.5523631 8.07991121,5.57896346 Z" id="heart" fill="#FFFFFF"></path>
            </g>
            <g id="emojii" transform="translate(250.000000, 50.000000) rotate(-25.000000) translate(-250.000000, -50.000000) translate(242.000000, 42.000000)">
                <circle id="body" fill="#FFDA6A" cx="8" cy="8" r="8"></circle>
                <path d="M8,14.4 C9.27639142,14.4 10.3111111,12.9673112 10.3111111,11.2 C10.3111111,9.4326888 9.27639142,8 8,8 C6.72360858,8 5.68888889,9.4326888 5.68888889,11.2 C5.68888889,12.9673112 6.72360858,14.4 8,14.4 Z M4.09417132,7.72952361 C4.71583386,7.83913949 5.34567767,7.21406154 5.50096683,6.33337294 C5.65625599,5.45268434 5.27818567,4.64988394 4.65652312,4.54026806 C4.03486058,4.43065218 3.40501678,5.05573012 3.24972762,5.93641873 C3.09443845,6.81710733 3.47250878,7.61990773 4.09417132,7.72952361 Z M11.9745021,7.72952361 C11.3528395,7.83913949 10.7229957,7.21406154 10.5677066,6.33337294 C10.4124174,5.45268434 10.7904877,4.64988394 11.4121503,4.54026806 C12.0338128,4.43065218 12.6636566,5.05573012 12.8189458,5.93641873 C12.9742349,6.81710733 12.5961646,7.61990773 11.9745021,7.72952361 Z M3.60580113,2.73059852 C3.61196448,2.72289433 3.63019995,2.70270664 3.65993486,2.67414355 C3.7127403,2.62341911 3.77612113,2.57205061 3.84939406,2.52394212 C4.22684869,2.27611837 4.68708867,2.21313816 5.24807985,2.45356296 C5.38344779,2.51157779 5.54021551,2.44887071 5.59823034,2.31350277 C5.65624517,2.17813482 5.59353809,2.02136711 5.45817015,1.96335228 C4.72317185,1.648353 4.07644778,1.73685208 3.55667893,2.07811447 C3.38070752,2.19365125 3.25826613,2.31126737 3.18933776,2.39742783 C3.09733522,2.51243101 3.11598092,2.68024231 3.2309841,2.77224486 C3.34598728,2.8642474 3.51379858,2.8456017 3.60580113,2.73059852 Z M12.8793356,2.39742783 C12.8104073,2.31126737 12.6879659,2.19365125 12.5119945,2.07811447 C11.9922256,1.73685208 11.3455015,1.648353 10.6105032,1.96335228 C10.4751353,2.02136711 10.4124282,2.17813482 10.470443,2.31350277 C10.5284579,2.44887071 10.6852256,2.51157779 10.8205935,2.45356296 C11.3815847,2.21313816 11.8418247,2.27611837 12.2192793,2.52394212 C12.2925523,2.57205061 12.3559331,2.62341911 12.4087385,2.67414355 C12.4384734,2.70270664 12.4567089,2.72289433 12.4628723,2.73059852 C12.5548748,2.8456017 12.7226861,2.8642474 12.8376893,2.77224486 C12.9526925,2.68024231 12.9713382,2.51243101 12.8793356,2.39742783 Z" id="expression" fill="#000000"></path>
            </g>
            <g id="emojii-copy-2" transform="translate(150.000000, 150.000000) rotate(140.000000) translate(-150.000000, -150.000000) translate(142.000000, 142.000000)">
                <circle id="body" fill="#FFDA6A" cx="8" cy="8" r="8"></circle>
                <path d="M8,14.4 C9.27639142,14.4 10.3111111,12.9673112 10.3111111,11.2 C10.3111111,9.4326888 9.27639142,8 8,8 C6.72360858,8 5.68888889,9.4326888 5.68888889,11.2 C5.68888889,12.9673112 6.72360858,14.4 8,14.4 Z M4.09417132,7.72952361 C4.71583386,7.83913949 5.34567767,7.21406154 5.50096683,6.33337294 C5.65625599,5.45268434 5.27818567,4.64988394 4.65652312,4.54026806 C4.03486058,4.43065218 3.40501678,5.05573012 3.24972762,5.93641873 C3.09443845,6.81710733 3.47250878,7.61990773 4.09417132,7.72952361 Z M11.9745021,7.72952361 C11.3528395,7.83913949 10.7229957,7.21406154 10.5677066,6.33337294 C10.4124174,5.45268434 10.7904877,4.64988394 11.4121503,4.54026806 C12.0338128,4.43065218 12.6636566,5.05573012 12.8189458,5.93641873 C12.9742349,6.81710733 12.5961646,7.61990773 11.9745021,7.72952361 Z M3.60580113,2.73059852 C3.61196448,2.72289433 3.63019995,2.70270664 3.65993486,2.67414355 C3.7127403,2.62341911 3.77612113,2.57205061 3.84939406,2.52394212 C4.22684869,2.27611837 4.68708867,2.21313816 5.24807985,2.45356296 C5.38344779,2.51157779 5.54021551,2.44887071 5.59823034,2.31350277 C5.65624517,2.17813482 5.59353809,2.02136711 5.45817015,1.96335228 C4.72317185,1.648353 4.07644778,1.73685208 3.55667893,2.07811447 C3.38070752,2.19365125 3.25826613,2.31126737 3.18933776,2.39742783 C3.09733522,2.51243101 3.11598092,2.68024231 3.2309841,2.77224486 C3.34598728,2.8642474 3.51379858,2.8456017 3.60580113,2.73059852 Z M12.8793356,2.39742783 C12.8104073,2.31126737 12.6879659,2.19365125 12.5119945,2.07811447 C11.9922256,1.73685208 11.3455015,1.648353 10.6105032,1.96335228 C10.4751353,2.02136711 10.4124282,2.17813482 10.470443,2.31350277 C10.5284579,2.44887071 10.6852256,2.51157779 10.8205935,2.45356296 C11.3815847,2.21313816 11.8418247,2.27611837 12.2192793,2.52394212 C12.2925523,2.57205061 12.3559331,2.62341911 12.4087385,2.67414355 C12.4384734,2.70270664 12.4567089,2.72289433 12.4628723,2.73059852 C12.5548748,2.8456017 12.7226861,2.8642474 12.8376893,2.77224486 C12.9526925,2.68024231 12.9713382,2.51243101 12.8793356,2.39742783 Z" id="expression" fill="#000000"></path>
            </g>
        </g>
    </g>
</svg>