<?xml version="1.0" encoding="UTF-8" standalone="no"?>
<svg width="218px" height="28px" viewBox="0 0 218 28" version="1.1" xmlns="http://www.w3.org/2000/svg" xmlns:xlink="http://www.w3.org/1999/xlink">
    <!-- Generator: Sketch 41.1 (35376) - http://www.bohemiancoding.com/sketch -->
    <title>logo</title>
    <desc>Created with Sketch.</desc>
    <defs></defs>
    <g id="Brand" stroke="none" stroke-width="1" fill="none" fill-rule="evenodd">
        <g id="Artboard-Copy-8" transform="translate(-16.000000, -111.000000)">
            <g id="logo" transform="translate(16.000000, 111.000000)">
                <path d="M3.44827586,23.5333333 L13.7931034,23.5333333 L13.7931034,13.1333333 L3.44827586,13.1333333 L3.44827586,23.5333333 Z M44.8275862,6.2 L44.8275862,2.01923081 C44.8275862,1.45127869 44.3643816,1 43.7929897,1 L42.4139068,1 C41.8301122,1 41.3793103,1.45632518 41.3793103,2.01923081 L41.3793103,25.9807692 C41.3793103,26.5487213 41.842515,27 42.4139068,27 L43.7929897,27 C44.3767844,27 44.8275862,26.5436748 44.8275862,25.9807692 L44.8275862,9.66666667 L48.9772408,9.66666667 C49.5365143,9.66666667 50,9.20938628 50,8.64530233 L50,7.22136434 C50,6.65320613 49.5420951,6.2 48.9772408,6.2 L44.8275862,6.2 Z M3.44827586,9.66666667 L15.5172304,9.66666667 C16.4694515,9.66666667 17.2413793,10.4451174 17.2413793,11.4000111 L17.2413793,25.2666556 C17.2413793,26.2239553 16.4670583,27 15.5172304,27 L1.72414894,27 C0.771927772,27 0,26.2215493 0,25.2666556 L0,11.7494316 L0,2.03448118 C0,1.463153 0.450801849,1 1.03459646,1 L2.4136794,1 C2.98507125,1 3.44827586,1.46082497 3.44827586,2.03448118 L3.44827586,9.66666667 Z M20.6896552,11.4000111 C20.6896552,10.4427114 21.4639762,9.66666667 22.4138041,9.66666667 L36.2068855,9.66666667 C37.1591067,9.66666667 37.9310345,10.4451174 37.9310345,11.4000111 L37.9310345,25.2666556 C37.9310345,26.2239553 37.1567135,27 36.2068855,27 L22.4138041,27 C21.4615829,27 20.6896552,26.2215493 20.6896552,25.2666556 L20.6896552,11.4000111 Z M24.137931,23.5333333 L34.4827586,23.5333333 L34.4827586,13.1333333 L24.137931,13.1333333 L24.137931,23.5333333 Z" id="Combined-Shape" fill="#65E2B0"></path>
                <path d="M53.589,26.297 C53.589,26.667 53.885,27 54.292,27 L56.697,27 C57.067,27 57.4,26.667 57.4,26.297 L57.4,17.602 L62.765,17.602 C67.279,17.602 71.016,13.865 71.016,9.277 C71.016,4.8 67.279,1.1 62.728,1.1 L54.292,1.1 C53.885,1.1 53.589,1.433 53.589,1.803 L53.589,26.297 Z M57.4,13.976 L57.4,4.8 L62.506,4.8 C65.059,4.8 67.205,6.724 67.205,9.24 C67.205,11.904 65.059,13.976 62.506,13.976 L57.4,13.976 Z M75.567,26.297 C75.567,26.667 75.863,27 76.27,27 L78.675,27 C79.045,27 79.378,26.667 79.378,26.297 L79.378,16.862 L84.965,16.862 L89.886,26.667 C89.96,26.815 90.182,27 90.478,27 L93.364,27 C93.993,27 94.252,26.408 93.993,25.927 L88.924,16.529 C92.143,15.234 94.4,12.422 94.4,9.018 C94.4,4.615 90.774,1.1 86.334,1.1 L76.27,1.1 C75.863,1.1 75.567,1.433 75.567,1.803 L75.567,26.297 Z M79.452,13.68 L79.452,4.689 L86.038,4.689 C88.443,4.689 90.552,6.687 90.552,9.092 C90.552,11.645 88.443,13.68 86.038,13.68 L79.452,13.68 Z M100.172,26.297 C100.172,26.667 100.468,27 100.875,27 L115.675,27 C116.082,27 116.378,26.667 116.378,26.297 L116.378,24.262 C116.378,23.892 116.082,23.559 115.675,23.559 L103.983,23.559 L103.983,15.604 L113.862,15.604 C114.232,15.604 114.565,15.308 114.565,14.901 L114.565,12.829 C114.565,12.459 114.232,12.126 113.862,12.126 L103.983,12.126 L103.983,4.578 L115.675,4.578 C116.082,4.578 116.378,4.245 116.378,3.875 L116.378,1.803 C116.378,1.433 116.082,1.1 115.675,1.1 L100.875,1.1 C100.468,1.1 100.172,1.433 100.172,1.803 L100.172,26.297 Z M121.965,26.297 C121.965,26.667 122.298,27 122.668,27 L124.999,27 C125.406,27 125.702,26.667 125.702,26.297 L125.702,8.278 L125.739,8.278 L141.797,27.37 L142.759,27.37 C143.129,27.37 143.462,27.074 143.462,26.704 L143.462,1.803 C143.462,1.433 143.129,1.1 142.759,1.1 L140.391,1.1 C139.984,1.1 139.688,1.433 139.688,1.803 L139.688,19.304 L139.651,19.304 L123.593,0.73 L122.668,0.73 C122.298,0.73 121.965,1.026 121.965,1.396 L121.965,26.297 Z M150.64,26.297 C150.64,26.667 150.936,27 151.343,27 L166.143,27 C166.55,27 166.846,26.667 166.846,26.297 L166.846,24.262 C166.846,23.892 166.55,23.559 166.143,23.559 L154.451,23.559 L154.451,15.604 L164.33,15.604 C164.7,15.604 165.033,15.308 165.033,14.901 L165.033,12.829 C165.033,12.459 164.7,12.126 164.33,12.126 L154.451,12.126 L154.451,4.578 L166.143,4.578 C166.55,4.578 166.846,4.245 166.846,3.875 L166.846,1.803 C166.846,1.433 166.55,1.1 166.143,1.1 L151.343,1.1 C150.936,1.1 150.64,1.433 150.64,1.803 L150.64,26.297 Z M172.1,17.343 C172.1,22.967 176.318,27.37 182.127,27.37 C187.973,27.37 192.228,22.967 192.228,17.343 L192.228,1.803 C192.228,1.433 191.895,1.1 191.525,1.1 L189.046,1.1 C188.639,1.1 188.343,1.433 188.343,1.803 L188.343,17.158 C188.343,20.821 185.938,23.67 182.127,23.67 C178.353,23.67 175.985,20.784 175.985,17.084 L175.985,1.803 C175.985,1.433 175.689,1.1 175.282,1.1 L172.803,1.1 C172.433,1.1 172.1,1.433 172.1,1.803 L172.1,17.343 Z M199.073,26.297 C199.073,26.667 199.369,27 199.776,27 L202.181,27 C202.551,27 202.884,26.667 202.884,26.297 L202.884,16.862 L208.471,16.862 L213.392,26.667 C213.466,26.815 213.688,27 213.984,27 L216.87,27 C217.499,27 217.758,26.408 217.499,25.927 L212.43,16.529 C215.649,15.234 217.906,12.422 217.906,9.018 C217.906,4.615 214.28,1.1 209.84,1.1 L199.776,1.1 C199.369,1.1 199.073,1.433 199.073,1.803 L199.073,26.297 Z M202.958,13.68 L202.958,4.689 L209.544,4.689 C211.949,4.689 214.058,6.687 214.058,9.092 C214.058,11.645 211.949,13.68 209.544,13.68 L202.958,13.68 Z" id="PRENEUR" fill="#454C4A"></path>
            </g>
        </g>
    </g>
</svg>